<?xml version="1.0" encoding="UTF-8" standalone="no"?>
<!-- Created with Inkscape (http://www.inkscape.org/) -->

<svg
   width="168.45082mm"
   height="119.27029mm"
   viewBox="0 0 636.66453 450.78535"
   version="1.1"
   id="svg1"
   xmlns="http://www.w3.org/2000/svg"
   xmlns:svg="http://www.w3.org/2000/svg">
  <defs
     id="defs1" />
  <g
     id="layer1"
     transform="translate(-268.37428,-159.82806)">
    <path
       id="path7"
       d="m 905.0388,244.55616 v -64.65165 a 20.07645,20.07645 0 0 0 -20.07645,-20.07645 h -590.0467 a 26.541366,26.541366 0 0 0 -26.54137,26.54136 v 34.54912 a 23.637618,23.637618 0 0 0 23.63762,23.63762 h 199.84317 a 32.464714,32.464714 0 0 1 32.46471,32.46471 v 65.83066 h -225.0855 a 24.538389,24.538389 0 0 0 -24.53839,24.53839 v 32.49802 a 27.702093,27.702093 0 0 0 27.70209,27.70209 h 221.9218 v 76.78446 a 21.5109,21.5109 0 0 1 -21.5109,21.5109 H 307.817 a 39.442719,39.442719 0 0 0 -39.44272,39.44272 v 5.84259 A 39.442719,39.442719 0 0 0 307.817,610.61342 H 524.31978 649.0933 885.05507 A 19.983726,19.983726 0 0 0 905.0388,590.62969 V 550.55136 A 24.665967,24.665967 0 0 0 880.37283,525.88539 H 672.91682 A 23.823516,23.823516 0 0 1 649.0933,502.06187 v -74.47184 h 139.39066 a 16.422878,16.422878 0 0 0 16.42288,-16.42288 V 359.07488 A 16.223348,16.223348 0 0 0 788.68349,342.85153 H 649.0933 v -61.50756 a 36.787812,36.787812 0 0 1 36.78781,-36.78781 h 162.24542 56.91227"
       style="fill:#cc5a7e;fill-opacity:1;fill-rule:nonzero;stroke:none;stroke-width:1.26445" />
  </g>
</svg>
