<?xml version="1.0" encoding="UTF-8" standalone="no"?>
<!-- Created with Inkscape (http://www.inkscape.org/) -->

<svg
   width="121.49346mm"
   height="121.04733mm"
   viewBox="0 0 459.18789 457.50174"
   version="1.1"
   id="svg1"
   xmlns="http://www.w3.org/2000/svg"
   xmlns:svg="http://www.w3.org/2000/svg">
  <defs
     id="defs1">
    <clipPath
       clipPathUnits="userSpaceOnUse"
       id="clipPath28">
      <path
         d="m 2870.56,3009.88 c 0,204.32 -166.23,370.55 -370.56,370.55 -204.33,0 -370.56,-166.23 -370.56,-370.55 0,-151.65 90.79,-286.47 231.28,-343.48 3.93,-1.6 7.9,-3.04 11.87,-4.49 v 68.1 c -109.83,49.96 -180.22,158.31 -180.22,279.87 0,169.62 138.01,307.62 307.63,307.62 169.62,0 307.63,-138 307.63,-307.62 0,-124.19 -74.03,-231.35 -180.22,-279.89 v -68.1 c 141.75,52.07 243.15,188.41 243.15,347.99 z"
         transform="translate(0,2.5e-5)"
         id="path28" />
    </clipPath>
    <clipPath
       clipPathUnits="userSpaceOnUse"
       id="clipPath24">
      <path
         d="m 3006.68,3009.88 c 0,279.38 -227.3,506.68 -506.68,506.68 -279.38,0 -506.68,-227.3 -506.68,-506.68 0,-226.96 152.12,-425.78 370.06,-483.95 3.06,-1.05 6.14,-1.97 9.21,-2.95 v 65.79 c -186.66,53.19 -316.34,225.1 -316.34,421.11 0,244.68 199.06,443.75 443.75,443.75 244.68,0 443.75,-199.07 443.75,-443.75 0,-200.41 -133.57,-370.13 -316.34,-425.02 v -65.42 c 217.91,56.65 379.27,255.05 379.27,490.44 z"
         transform="translate(0,2.5e-5)"
         id="path24" />
    </clipPath>
    <clipPath
       clipPathUnits="userSpaceOnUse"
       id="clipPath20">
      <path
         d="m 3142.81,3009.88 c 0,354.45 -288.37,642.81 -642.81,642.81 -354.45,0 -642.81,-288.36 -642.81,-642.81 0,-302.04 213.53,-564.23 507.9,-623.93 2.48,-0.71 5.01,-1.19 7.5,-1.87 v 64.7 c -262.54,55.73 -452.47,290.62 -452.47,561.1 0,319.74 260.13,579.87 579.88,579.87 319.75,0 579.87,-260.13 579.87,-579.87 0,-275.96 -193.83,-507.37 -452.46,-565.6 v -64.48 c 293.62,59.28 515.4,319.25 515.4,630.08 z"
         transform="translate(0,2.5e-5)"
         id="path20" />
    </clipPath>
    <clipPath
       clipPathUnits="userSpaceOnUse"
       id="clipPath16">
      <path
         d="m 3278.94,3009.88 c 0,429.5 -349.44,778.93 -778.94,778.93 -429.51,0 -778.94,-349.43 -778.94,-778.93 0,-184.65 65.98,-363.47 185.78,-503.54 118.26,-138.27 281.44,-230.65 459.61,-260.17 2.03,-0.48 4.1,-0.79 6.14,-1.24 v 64.12 c -161.95,27.86 -310.21,112.25 -417.93,238.2 -110.05,128.68 -170.66,292.97 -170.66,462.63 0,394.8 321.2,716 716,716 394.8,0 716.01,-321.2 716.01,-716 0,-351.31 -254.4,-644.12 -588.6,-704.42 v -63.92 c 369.08,61.01 651.53,382.23 651.53,768.34 z"
         transform="translate(0,2.5e-5)"
         id="path16" />
    </clipPath>
    <clipPath
       clipPathUnits="userSpaceOnUse"
       id="clipPath12">
      <path
         d="m 3415.06,3009.88 c 0,504.56 -410.49,915.06 -915.06,915.06 -504.57,0 -915.06,-410.5 -915.06,-915.06 0,-221.26 80.14,-434.69 225.66,-600.97 144,-164.57 341.81,-271.97 557.03,-302.45 1.65,-0.29 3.31,-0.48 4.96,-0.76 v 63.72 c -413.46,60.53 -724.71,421 -724.71,840.46 0,469.87 382.26,852.13 852.12,852.13 469.87,0 852.13,-382.26 852.13,-852.13 0,-426.57 -315.08,-780.89 -724.72,-842.58 v -63.57 c 444.47,62.2 787.65,444.81 787.65,906.15 z"
         transform="translate(0,2.5e-5)"
         id="path12" />
    </clipPath>
    <clipPath
       clipPathUnits="userSpaceOnUse"
       id="clipPath8">
      <path
         d="m 3551.19,3009.88 c 0,579.62 -471.56,1051.18 -1051.19,1051.18 -579.62,0 -1051.18,-471.56 -1051.18,-1051.18 0,-529.28 395.46,-977.69 919.88,-1043.05 1.29,-0.17 2.6,-0.27 3.89,-0.42 v 63.43 c -491.03,63.19 -860.84,483.76 -860.84,980.04 0,544.92 443.33,988.25 988.25,988.25 544.93,0 988.25,-443.33 988.25,-988.25 0,-501.76 -375.88,-917.36 -860.84,-980.06 v -63.38 c 519.76,63.08 923.78,506.94 923.78,1043.44 z"
         transform="translate(0,2.5e-5)"
         id="path8" />
    </clipPath>
  </defs>
  <g
     id="layer1"
     transform="translate(-353.82102,-138.63848)">
    <path
       id="path5"
       d="m 3551.19,3009.88 c 0,579.62 -471.56,1051.18 -1051.19,1051.18 -579.62,0 -1051.18,-471.56 -1051.18,-1051.18 0,-529.28 395.46,-977.69 919.88,-1043.05 1.29,-0.17 2.6,-0.27 3.89,-0.42 v 63.43 c -491.03,63.19 -860.84,483.76 -860.84,980.04 0,544.92 443.33,988.25 988.25,988.25 544.93,0 988.25,-443.33 988.25,-988.25 0,-501.76 -375.88,-917.36 -860.84,-980.06 v -63.38 c 519.76,63.08 923.78,506.94 923.78,1043.44"
       style="fill:#cc5a7e;fill-opacity:1;fill-rule:nonzero;stroke:none"
       transform="matrix(0.21841441,0,0,-0.21841441,37.377858,1025.6325)"
       clip-path="url(#clipPath8)" />
    <path
       id="path9"
       d="m 3415.06,3009.88 c 0,504.56 -410.49,915.06 -915.06,915.06 -504.57,0 -915.06,-410.5 -915.06,-915.06 0,-221.26 80.14,-434.69 225.66,-600.97 144,-164.57 341.81,-271.97 557.03,-302.45 1.65,-0.29 3.31,-0.48 4.96,-0.76 v 63.72 c -413.46,60.53 -724.71,421 -724.71,840.46 0,469.87 382.26,852.13 852.12,852.13 469.87,0 852.13,-382.26 852.13,-852.13 0,-426.57 -315.08,-780.89 -724.72,-842.58 v -63.57 c 444.47,62.2 787.65,444.81 787.65,906.15"
       style="fill:#cc5a7e;fill-opacity:1;fill-rule:nonzero;stroke:none"
       transform="matrix(0.21841441,0,0,-0.21841441,37.377858,1025.6325)"
       clip-path="url(#clipPath12)" />
    <path
       id="path13"
       d="m 3278.94,3009.88 c 0,429.5 -349.44,778.93 -778.94,778.93 -429.51,0 -778.94,-349.43 -778.94,-778.93 0,-184.65 65.98,-363.47 185.78,-503.54 118.26,-138.27 281.44,-230.65 459.61,-260.17 2.03,-0.48 4.1,-0.79 6.14,-1.24 v 64.12 c -161.95,27.86 -310.21,112.25 -417.93,238.2 -110.05,128.68 -170.66,292.97 -170.66,462.63 0,394.8 321.2,716 716,716 394.8,0 716.01,-321.2 716.01,-716 0,-351.31 -254.4,-644.12 -588.6,-704.42 v -63.92 c 369.08,61.01 651.53,382.23 651.53,768.34"
       style="fill:#cc5a7e;fill-opacity:1;fill-rule:nonzero;stroke:none"
       transform="matrix(0.21841441,0,0,-0.21841441,37.377858,1025.6325)"
       clip-path="url(#clipPath16)" />
    <path
       id="path17"
       d="m 3142.81,3009.88 c 0,354.45 -288.37,642.81 -642.81,642.81 -354.45,0 -642.81,-288.36 -642.81,-642.81 0,-302.04 213.53,-564.23 507.9,-623.93 2.48,-0.71 5.01,-1.19 7.5,-1.87 v 64.7 c -262.54,55.73 -452.47,290.62 -452.47,561.1 0,319.74 260.13,579.87 579.88,579.87 319.75,0 579.87,-260.13 579.87,-579.87 0,-275.96 -193.83,-507.37 -452.46,-565.6 v -64.48 c 293.62,59.28 515.4,319.25 515.4,630.08"
       style="fill:#cc5a7e;fill-opacity:1;fill-rule:nonzero;stroke:none"
       transform="matrix(0.21841441,0,0,-0.21841441,37.377858,1025.6325)"
       clip-path="url(#clipPath20)" />
    <path
       id="path21"
       d="m 3006.68,3009.88 c 0,279.38 -227.3,506.68 -506.68,506.68 -279.38,0 -506.68,-227.3 -506.68,-506.68 0,-226.96 152.12,-425.78 370.06,-483.95 3.06,-1.05 6.14,-1.97 9.21,-2.95 v 65.79 c -186.66,53.19 -316.34,225.1 -316.34,421.11 0,244.68 199.06,443.75 443.75,443.75 244.68,0 443.75,-199.07 443.75,-443.75 0,-200.41 -133.57,-370.13 -316.34,-425.02 v -65.42 c 217.91,56.65 379.27,255.05 379.27,490.44"
       style="fill:#cc5a7e;fill-opacity:1;fill-rule:nonzero;stroke:none"
       transform="matrix(0.21841441,0,0,-0.21841441,37.377858,1025.6325)"
       clip-path="url(#clipPath24)" />
    <path
       id="path25"
       d="m 2870.56,3009.88 c 0,204.32 -166.23,370.55 -370.56,370.55 -204.33,0 -370.56,-166.23 -370.56,-370.55 0,-151.65 90.79,-286.47 231.28,-343.48 3.93,-1.6 7.9,-3.04 11.87,-4.49 v 68.1 c -109.83,49.96 -180.22,158.31 -180.22,279.87 0,169.62 138.01,307.62 307.63,307.62 169.62,0 307.63,-138 307.63,-307.62 0,-124.19 -74.03,-231.35 -180.22,-279.89 v -68.1 c 141.75,52.07 243.15,188.41 243.15,347.99"
       style="fill:#cc5a7e;fill-opacity:1;fill-rule:nonzero;stroke:none"
       transform="matrix(0.21841441,0,0,-0.21841441,37.377858,1025.6325)"
       clip-path="url(#clipPath28)" />
    <path
       id="path29"
       d="m 555.5857,408.16846 h 55.65636"
       style="fill:#14181c;fill-opacity:1;fill-rule:nonzero;stroke:none;stroke-width:0.218414" />
  </g>
</svg>
